<?xml version="1.0" encoding="utf-8"?>
<!-- Generator: Adobe Illustrator 17.1.0, SVG Export Plug-In . SVG Version: 6.00 Build 0)  -->
<!DOCTYPE svg PUBLIC "-//W3C//DTD SVG 1.1//EN" "http://www.w3.org/Graphics/SVG/1.1/DTD/svg11.dtd">
<svg version="1.1" id="Layer_1" xmlns="http://www.w3.org/2000/svg" xmlns:xlink="http://www.w3.org/1999/xlink" x="0px" y="0px"
	 viewBox="0 0 612 606.75" enable-background="new 0 0 612 606.75" xml:space="preserve">
<path fill="#2E368F" d="M507.738-1.001H101.343C45.925-1.001,1.001,43.923,1.001,99.341v406.392
	c0,55.418,44.924,100.342,100.342,100.342H324.15V368.938h-80.035v-91.892h81.517v-77.071c0,0-10.375-97.82,109.677-111.16
	c0,0,53.357-1.482,80.035,2.964v82.999h-50.392c0,0-38.535,0-41.5,26.678v75.589h87.446l-11.857,91.892h-78.553v237.137h87.247
	c55.418,0,100.342-44.924,100.342-100.342V99.341C608.08,43.923,563.156-1.001,507.738-1.001z"/>
</svg>
