<?xml version="1.0" encoding="utf-8"?>
<!-- Generator: Adobe Illustrator 17.1.0, SVG Export Plug-In . SVG Version: 6.00 Build 0)  -->
<!DOCTYPE svg PUBLIC "-//W3C//DTD SVG 1.1//EN" "http://www.w3.org/Graphics/SVG/1.1/DTD/svg11.dtd">
<svg version="1.1" id="Layer_1" xmlns="http://www.w3.org/2000/svg" xmlns:xlink="http://www.w3.org/1999/xlink" x="0px" y="0px"
	 viewBox="152.8 243.4 303.5 303.5" enable-background="new 152.8 243.4 303.5 303.5" xml:space="preserve">
<path fill="#2E368F" d="M406.1,243.4H202.9c-27.7,0-50.2,22.5-50.2,50.2v203.2c0,27.7,22.5,50.2,50.2,50.2h111.4V428.4h-40v-45.9
	h40.8v-38.5c0,0-5.2-48.9,54.8-55.6c0,0,26.7-0.7,40,1.5v41.5h-25.2c0,0-19.3,0-20.8,13.3v37.8h43.7l-5.9,45.9h-39.3v118.6h43.6
	c27.7,0,50.2-22.5,50.2-50.2V293.6C456.3,265.9,433.8,243.4,406.1,243.4z"/>
</svg>
