<?xml version="1.0" encoding="utf-8"?>
<!-- Generator: Adobe Illustrator 17.1.0, SVG Export Plug-In . SVG Version: 6.00 Build 0)  -->
<!DOCTYPE svg PUBLIC "-//W3C//DTD SVG 1.1//EN" "http://www.w3.org/Graphics/SVG/1.1/DTD/svg11.dtd">
<svg version="1.1" id="Layer_1" xmlns="http://www.w3.org/2000/svg" xmlns:xlink="http://www.w3.org/1999/xlink" x="0px" y="0px"
	 viewBox="0 217.6 967 356.5" enable-background="new 0 217.6 967 356.5" xml:space="preserve">
<g>
	
		<linearGradient id="SVGID_1_" gradientUnits="userSpaceOnUse" x1="-1.709" y1="624" x2="911.8384" y2="624" gradientTransform="matrix(1.0632 0 0 -1.0632 0 1059.6973)">
		<stop  offset="0.102" style="stop-color:#27AAE1"/>
		<stop  offset="0.1728" style="stop-color:#2299D6"/>
		<stop  offset="0.2785" style="stop-color:#1F85C7"/>
		<stop  offset="0.3658" style="stop-color:#1D79BF"/>
		<stop  offset="0.4235" style="stop-color:#1C75BC"/>
		<stop  offset="0.5313" style="stop-color:#2264AD"/>
		<stop  offset="0.6624" style="stop-color:#2652A0"/>
		<stop  offset="0.7863" style="stop-color:#284497"/>
		<stop  offset="0.8988" style="stop-color:#2A3C91"/>
		<stop  offset="0.9898" style="stop-color:#2B3990"/>
	</linearGradient>
	<rect x="-1.8" y="217.6" fill="url(#SVGID_1_)" width="971.3" height="357.2"/>
	<polyline fill="none" stroke="#FFFFFF" stroke-width="1.4249" stroke-miterlimit="10" points="1.1,233.7 786,233.7 872.3,275.7 
		970.2,275.7 	"/>
	<polyline fill="none" stroke="#FFFFFF" stroke-width="1.4249" stroke-miterlimit="10" points="833.5,220.9 863.7,237.4 
		912.3,237.4 936,249.1 970.2,249.1 	"/>
	<polyline fill="none" stroke="#FFFFFF" stroke-width="1.4249" stroke-miterlimit="10" points="798.9,220.9 884.7,263.2 
		970.2,263.2 	"/>
	<polyline fill="none" stroke="#FFFFFF" stroke-width="1.4249" stroke-miterlimit="10" points="970.2,257.1 919.8,257.1 
		900.6,247.6 	"/>
	<ellipse fill="#FFFFFF" cx="896.3" cy="245.5" rx="4.3" ry="2.1"/>
	<ellipse fill="#FFFFFF" cx="773.8" cy="247.6" rx="4.3" ry="2.1"/>
	<ellipse fill="#FFFFFF" cx="166.5" cy="284" rx="4.3" ry="2.1"/>
	<ellipse fill="#FFFFFF" cx="274.5" cy="305.3" rx="4.3" ry="2.1"/>
	<ellipse fill="#FFFFFF" cx="296" cy="314.5" rx="4.3" ry="2.1"/>
	<ellipse fill="#FFFFFF" cx="255.8" cy="320.2" rx="4.3" ry="2.1"/>
	<ellipse fill="#FFFFFF" cx="189.6" cy="335.8" rx="4.3" ry="2.1"/>
	<ellipse fill="#FFFFFF" cx="513.3" cy="368.4" rx="4.3" ry="2.1"/>
	<ellipse fill="#FFFFFF" cx="372.3" cy="416.6" rx="4.3" ry="2.1"/>
	<ellipse fill="#FFFFFF" cx="916.2" cy="366.9" rx="4.3" ry="2.1"/>
	<ellipse fill="#FFFFFF" cx="865.9" cy="401" rx="4.3" ry="2.1"/>
	<ellipse fill="#FFFFFF" cx="656.5" cy="443.9" rx="4.3" ry="2.1"/>
	<ellipse fill="#FFFFFF" cx="589.6" cy="450.6" rx="4.3" ry="2.1"/>
	<ellipse fill="#FFFFFF" cx="610.1" cy="496.3" rx="4.3" ry="2.1"/>
	<ellipse fill="#FFFFFF" cx="830.2" cy="569.4" rx="4.3" ry="2.1"/>
	<ellipse fill="#FFFFFF" cx="795.7" cy="543.1" rx="4.3" ry="2.1"/>
	<ellipse fill="#FFFFFF" cx="852.9" cy="529.3" rx="4.3" ry="2.1"/>
	<ellipse fill="#FFFFFF" cx="754.7" cy="566.5" rx="4.3" ry="2.1"/>
	<ellipse fill="#FFFFFF" cx="578.8" cy="492.1" rx="4.3" ry="2.1"/>
	<ellipse fill="#FFFFFF" cx="531.3" cy="459.1" rx="4.3" ry="2.1"/>
	<ellipse fill="#FFFFFF" cx="835.6" cy="481.8" rx="4.3" ry="2.1"/>
	<ellipse fill="#FFFFFF" cx="824.8" cy="471.6" rx="4.3" ry="2.1"/>
	<ellipse fill="#FFFFFF" cx="670.2" cy="438.5" rx="4.3" ry="2.1"/>
	<ellipse fill="#FFFFFF" cx="677.4" cy="427.2" rx="4.3" ry="2.1"/>
	<ellipse fill="#FFFFFF" cx="86" cy="365.5" rx="4.3" ry="2.1"/>
	<ellipse fill="#FFFFFF" cx="301.8" cy="392.5" rx="4.3" ry="2.1"/>
	<ellipse fill="#FFFFFF" cx="172.3" cy="460.5" rx="4.3" ry="2.1"/>
	<ellipse fill="#FFFFFF" cx="307.9" cy="568.1" rx="4.3" ry="2.1"/>
	<ellipse fill="#FFFFFF" cx="45.7" cy="533.5" rx="4.3" ry="2.1"/>
	<ellipse fill="#FFFFFF" cx="191" cy="449.9" rx="4.3" ry="2.1"/>
	<ellipse fill="#FFFFFF" cx="166.5" cy="525.5" rx="4.3" ry="2.1"/>
	<ellipse fill="none" stroke="#FFFFFF" stroke-width="1.4249" stroke-miterlimit="10" cx="338.1" cy="578.7" rx="4.3" ry="2.1"/>
	<ellipse fill="#FFFFFF" cx="235.6" cy="384.7" rx="4.3" ry="2.1"/>
	<ellipse fill="#FFFFFF" cx="572.3" cy="410.9" rx="4.3" ry="2.1"/>
	<ellipse fill="#FFFFFF" cx="418.4" cy="427.9" rx="4.3" ry="2.1"/>
	<ellipse fill="#FFFFFF" cx="553.6" cy="430.7" rx="4.3" ry="2.1"/>
	<ellipse fill="#FFFFFF" cx="45.7" cy="380.4" rx="4.3" ry="2.1"/>
	<ellipse fill="#FFFFFF" cx="484.5" cy="357.7" rx="4.3" ry="2.1"/>
	<ellipse fill="#FFFFFF" cx="880.2" cy="390.3" rx="4.3" ry="2.1"/>
	<ellipse fill="#FFFFFF" cx="504" cy="274.9" rx="4.3" ry="2.1"/>
	<ellipse fill="#FFFFFF" cx="432" cy="293.5" rx="4.3" ry="2.1"/>
	<ellipse fill="#FFFFFF" cx="713.3" cy="253.5" rx="4.3" ry="2.1"/>
	<polyline fill="none" stroke="#FFFFFF" stroke-width="1.4249" stroke-miterlimit="10" points="1.1,242.1 788.2,242.1 872.5,283.6 
		970.2,283.6 	"/>
	<line fill="none" stroke="#FFFFFF" stroke-width="1.4249" stroke-miterlimit="10" x1="1.1" y1="247.6" x2="769.4" y2="247.6"/>
	<polyline fill="none" stroke="#FFFFFF" stroke-width="1.4249" stroke-miterlimit="10" points="1.1,252.3 228.4,252.3 259.1,267.5 
		452.9,267.5 482.2,253 709,253 	"/>
	<polyline fill="none" stroke="#FFFFFF" stroke-width="1.4249" stroke-miterlimit="10" points="1.1,263.2 199.6,263.2 231.6,278.9 
		441.4,278.9 475.3,295.6 970.2,295.6 	"/>
	<polyline fill="none" stroke="#FFFFFF" stroke-width="1.4249" stroke-miterlimit="10" points="970.2,290.4 779.5,290.4 748,274.9 
		506.1,274.9 	"/>
	<polyline fill="none" stroke="#FFFFFF" stroke-width="1.4249" stroke-miterlimit="10" points="1.1,273 168.7,273 210.2,293.5 
		427.7,293.5 	"/>
	<line fill="none" stroke="#FFFFFF" stroke-width="1.4249" stroke-miterlimit="10" x1="1.1" y1="283.6" x2="162.2" y2="283.6"/>
	<polyline fill="none" stroke="#FFFFFF" stroke-width="1.4249" stroke-miterlimit="10" points="1.1,295.6 171.9,295.6 281.7,349.7 
		562.6,349.7 590.8,335.8 970.2,335.8 	"/>
	<polyline fill="none" stroke="#FFFFFF" stroke-width="1.4249" stroke-miterlimit="10" points="970.2,328.3 587.4,328.3 
		554.5,344.5 302.5,344.5 258.2,322.7 	"/>
	<line fill="none" stroke="#FFFFFF" stroke-width="1.4249" stroke-miterlimit="10" x1="278.8" y1="305.5" x2="970.2" y2="305.5"/>
	<polyline fill="none" stroke="#FFFFFF" stroke-width="1.4249" stroke-miterlimit="10" points="970.2,315.6 579.9,315.6 
		550.2,330.2 329.5,330.2 300.1,315.7 	"/>
	<polyline fill="none" stroke="#FFFFFF" stroke-width="1.4249" stroke-miterlimit="10" points="1.1,305.5 162.2,305.5 234.5,341.1 	
		"/>
	<polyline fill="none" stroke="#FFFFFF" stroke-width="1.4249" stroke-miterlimit="10" points="1.1,317.7 57.5,317.7 95.3,336.3 
		186,336.3 	"/>
	<polyline fill="none" stroke="#FFFFFF" stroke-width="1.4249" stroke-miterlimit="10" points="1.1,330.2 54.3,330.2 137.7,371.2 
		460.1,371.2 484.6,359.2 	"/>
	<polyline fill="none" stroke="#FFFFFF" stroke-width="1.4249" stroke-miterlimit="10" points="517.3,368.2 774.1,368.2 
		821.3,344.9 965.1,344.9 	"/>
	<polyline fill="none" stroke="#FFFFFF" stroke-width="1.4249" stroke-miterlimit="10" points="970.2,360.2 900.6,360.2 
		849.2,385.5 604.7,385.5 582.8,374.7 186,374.7 175.9,379.7 136.3,379.7 49.1,336.7 1.1,336.7 	"/>
	<polyline fill="none" stroke="#FFFFFF" stroke-width="1.4249" stroke-miterlimit="10" points="1.1,347.5 47.8,347.5 81.5,364 	"/>
	<polyline fill="none" stroke="#FFFFFF" stroke-width="1.4249" stroke-miterlimit="10" points="1.1,364 31.6,364 94.9,395.2 
		214.4,395.2 234.3,385.4 	"/>
	<line fill="none" stroke="#FFFFFF" stroke-width="1.4249" stroke-miterlimit="10" x1="1.1" y1="379.6" x2="41.3" y2="379.6"/>
	<polyline fill="none" stroke="#FFFFFF" stroke-width="1.4249" stroke-miterlimit="10" points="1.1,391.6 54.3,391.6 79.8,404.1 
		258.2,404.1 296,385.5 562.6,385.5 593.6,400.8 861.5,400.8 	"/>
	<line fill="none" stroke="#FFFFFF" stroke-width="1.4249" stroke-miterlimit="10" x1="884.6" y1="390" x2="965.1" y2="390"/>
	<polyline fill="none" stroke="#FFFFFF" stroke-width="1.4249" stroke-miterlimit="10" points="965.1,375.1 900.6,375.1 
		913.4,368.8 	"/>
	<polyline fill="none" stroke="#FFFFFF" stroke-width="1.4249" stroke-miterlimit="10" points="1.1,411.2 264.7,411.2 299.1,394.3 	
		"/>
	<polyline fill="none" stroke="#FFFFFF" stroke-width="1.4249" stroke-miterlimit="10" points="1.1,421.3 299.1,421.3 349,396.8 
		543.2,396.8 569.7,409.8 	"/>
	<polyline fill="none" stroke="#FFFFFF" stroke-width="1.4249" stroke-miterlimit="10" points="1.1,428.8 320.9,428.8 361.9,408.6 
		537.8,408.6 563.7,421.3 629.5,421.3 652.8,409.9 970.2,409.9 	"/>
	<polyline fill="none" stroke="#FFFFFF" stroke-width="1.4249" stroke-miterlimit="10" points="970.2,418.7 664,418.7 624.8,438 
		468.7,438 447.5,427.5 420.1,427.5 	"/>
	<polyline fill="none" stroke="#FFFFFF" stroke-width="1.4249" stroke-miterlimit="10" points="1.1,435.2 333.8,435.2 367.8,418.4 	
		"/>
	<polyline fill="none" stroke="#FFFFFF" stroke-width="1.4249" stroke-miterlimit="10" points="1.1,441.5 355,441.5 402.2,418.3 
		529.1,418.3 550,428.6 	"/>
	<line fill="none" stroke="#FFFFFF" stroke-width="1.4249" stroke-miterlimit="10" x1="1.1" y1="449.5" x2="186" y2="449.5"/>
	<polyline fill="none" stroke="#FFFFFF" stroke-width="1.4249" stroke-miterlimit="10" points="1.1,470.8 150.1,470.8 168.6,461.7 	
		"/>
	<polyline fill="none" stroke="#FFFFFF" stroke-width="1.4249" stroke-miterlimit="10" points="1.1,475 177.3,475 236.1,446.1 
		543.2,446.1 641.7,494.6 970.2,494.6 	"/>
	<polyline fill="none" stroke="#FFFFFF" stroke-width="1.4249" stroke-miterlimit="10" points="970.2,488.3 822.7,488.3 
		794.6,474.5 635.1,474.5 590.8,452.7 	"/>
	<polyline fill="none" stroke="#FFFFFF" stroke-width="1.4249" stroke-miterlimit="10" points="965.1,468.1 935.4,468.1 
		907.6,481.8 840,481.8 	"/>
	<polyline fill="none" stroke="#FFFFFF" stroke-width="1.4249" stroke-miterlimit="10" points="970.2,459.6 877.7,459.6 
		853.4,471.6 829.2,471.6 	"/>
	<polyline fill="none" stroke="#FFFFFF" stroke-width="1.4249" stroke-miterlimit="10" points="656.5,446.1 689.1,462.1 
		807.6,462.1 831.2,450.5 965.1,450.5 	"/>
	<line fill="none" stroke="#FFFFFF" stroke-width="1.4249" stroke-miterlimit="10" x1="674.8" y1="438" x2="970.2" y2="438"/>
	<line fill="none" stroke="#FFFFFF" stroke-width="1.4249" stroke-miterlimit="10" x1="681.3" y1="426.8" x2="970.2" y2="426.8"/>
	<polyline fill="none" stroke="#FFFFFF" stroke-width="1.4249" stroke-miterlimit="10" points="1.1,481.8 130.9,481.8 150.9,491.6 
		195.7,491.6 262.7,458.6 527,458.6 	"/>
	<polyline fill="none" stroke="#FFFFFF" stroke-width="1.4249" stroke-miterlimit="10" points="1.1,491.6 106.1,491.6 134,505.4 
		207.5,505.4 277.2,471.1 436.3,471.1 454.3,480 506.1,480 537.1,464.7 563.7,464.7 637.4,501 854,501 892.9,520.2 942.5,520.2 
		968.7,507.3 	"/>
	<polyline fill="none" stroke="#FFFFFF" stroke-width="1.4249" stroke-miterlimit="10" points="968.7,537.2 884.6,537.2 
		839.6,515.1 506.1,515.1 491.9,522.1 397.5,522.1 368.9,508 264,508 174.8,551.9 1.1,551.9 	"/>
	<line fill="none" stroke="#FFFFFF" stroke-width="1.4249" stroke-miterlimit="10" x1="1.1" y1="533" x2="41.3" y2="533"/>
	<polyline fill="none" stroke="#FFFFFF" stroke-width="1.4249" stroke-miterlimit="10" points="1.1,541 177.3,541 276.5,492.1 
		391,492.1 419,505.9 462.2,505.9 482.1,496.1 605.8,496.1 	"/>
	<polyline fill="none" stroke="#FFFFFF" stroke-width="1.4249" stroke-miterlimit="10" points="1.1,513.3 53.2,513.3 78,525.5 
		162.2,525.5 	"/>
	<polyline fill="none" stroke="#FFFFFF" stroke-width="1.4249" stroke-miterlimit="10" points="1.1,503.7 93.5,503.7 128.4,520.9 
		176.3,520.9 189.8,514.2 219.4,514.2 287.9,480.5 431.3,480.5 454.8,492.1 574.5,492.1 	"/>
	<polyline fill="none" stroke="#FFFFFF" stroke-width="1.4249" stroke-miterlimit="10" points="1.1,562.2 110.4,562.2 125,569.4 
		179.5,569.4 274.2,522.7 367.8,522.7 395.7,536.5 503.2,536.5 516.9,529.8 752.5,529.8 775.2,541 829.2,541 850.6,530.4 	"/>
	<polyline fill="none" stroke="#FFFFFF" stroke-width="1.4249" stroke-miterlimit="10" points="968.7,549.5 896.1,549.5 
		879.9,557.4 822.5,557.4 797.6,545.2 	"/>
	<line fill="none" stroke="#FFFFFF" stroke-width="1.4249" stroke-miterlimit="10" x1="968.7" y1="569.4" x2="834.6" y2="569.4"/>
	<polyline fill="none" stroke="#FFFFFF" stroke-width="1.4249" stroke-miterlimit="10" points="1.1,572.9 100.7,572.9 111.5,578.2 	
		"/>
	<polyline fill="none" stroke="#FFFFFF" stroke-width="1.4249" stroke-miterlimit="10" points="190.3,579.2 275.5,537.2 
		310.1,537.2 337.3,550.6 377,550.6 390.1,544.2 527,544.2 549.1,555.1 651.1,555.1 680.5,540.6 741.2,540.6 808.8,573.9 	"/>
	<polyline fill="none" stroke="#FFFFFF" stroke-width="1.4249" stroke-miterlimit="10" points="228.1,578.2 284,550.6 310.1,550.6 
		339.2,564.9 517.3,564.9 	"/>
	<line fill="none" stroke="#FFFFFF" stroke-width="1.4249" stroke-miterlimit="10" x1="303.4" y1="569.4" x2="285.6" y2="578.2"/>
	<polyline fill="none" stroke="#FFFFFF" stroke-width="1.4249" stroke-miterlimit="10" points="506.1,578.2 498.4,574.4 
		449.3,574.4 440.5,570 410.4,570 393.5,578.3 341.4,578.3 	"/>
	<polyline fill="none" stroke="#FFFFFF" stroke-width="1.4249" stroke-miterlimit="10" points="539.9,578.2 556.9,569.8 
		689.9,569.8 713.8,558 738.2,558 752.3,565 	"/>
</g>
</svg>
