<?xml version="1.0" encoding="utf-8"?>
<!-- Generator: Adobe Illustrator 17.1.0, SVG Export Plug-In . SVG Version: 6.00 Build 0)  -->
<!DOCTYPE svg PUBLIC "-//W3C//DTD SVG 1.1//EN" "http://www.w3.org/Graphics/SVG/1.1/DTD/svg11.dtd">
<svg version="1.1" id="Layer_1" xmlns="http://www.w3.org/2000/svg" xmlns:xlink="http://www.w3.org/1999/xlink" x="0px" y="0px"
	 viewBox="0 642 612 150" enable-background="new 0 642 612 150" xml:space="preserve">
<path fill="#D1D3D4" d="M60.9,682.9h7.7h4.2h4.3h4.2h-4.2h4.2l31.8,48.8v-48.8h8.5h4.3h4.2h4.2h-4.2h4.2v8.5v4.2v10.6v4.2v6.4v4.3
	v8.4v6.4v8.5v4.2v6.4h-10.6h-4.2h-4.2h-0.9l-33.1-53v14.8v4.3v10.6v4.2v6.4v6.4v6.4H70.7h-4.3h-4.2h-1.3
	C60.9,755.1,60.9,682.9,60.9,682.9z"/>
<path fill="#D1D3D4" d="M146.5,682.3h10.7h4.3h4.3h4.3h-4.3h4.3V693v4.3V693v4.3h-10.7h-4.3h-4.3h-4.3h4.3h-4.3V682.3v4.3V682.3z
	 M146.5,705.8h8.6h4.3h4.3h4.3h-4.3h6.5l-0.1,48.3h-10.7h-4.3h-4.3h-4.3h4.3h-4.3V705.8z"/>
<path fill="#D1D3D4" d="M217.8,703c15.6-1.3,23.7,4.5,24.1,17.2v2.2v-1.1v-1.1v4.3v-2.2v2.2v10.8v4.3v4.3v4.3v6.5h-8.6H229h-4.3
	h-4.3h4.3h-4.3v-34.6c0-4.5-3.1-7.1-9.5-7.6c-4.5-0.3-7.8,1.5-10.1,5.4v8.7v4.3v10.8v4.3v8.7H190h-4.3h-4.3h-2.5v-49.8h6.9h4.3h4.3
	h4.3h-4.3h6.5v6C205.5,706.4,211.2,703.7,217.8,703z"/>
<path fill="#D1D3D4" d="M254.1,691.2h20.4v10.2h8.2h4.1h-4.1h4.1v8.2h-8.2h-4.1v8.2v4.1v8.2v4.1v10.2v4.1v6.1h-8.2h-4.1h-4.1H254
	h4.1H254v-45.1h-12.3v-8.2h8.2h4.1L254.1,691.2L254.1,691.2z"/>
<path fill="#D1D3D4" d="M315.3,704.6c17.8,0.5,27.1,9,27.9,25.5h-6.4H333h-9.8h-3.9h-5.9h-5.9c-0.3,10.9,1.1,17.1,4,18.5
	c2.9,1.4,5.8,1.2,8.7-0.5c2.9-1.8,4.1-5.8,3.5-12.1h7.4h3.9h3.9h3.9h-3.9h3.9c-2.7,10.8-8.3,17.1-16.9,19s-16.6,1.3-24.1-1.6
	c-7.5-2.9-12.4-9.7-14.6-20.2v-3.5C289.4,713.7,298.8,705.3,315.3,704.6z M315.6,710.1c-5.2,0.3-7.9,4.3-8.1,12.1h7.8h3.9h3.9
	C323.1,714.8,320.6,710.7,315.6,710.1z"/>
<path fill="#D1D3D4" d="M393.8,703c15.6-1.3,23.7,4.5,24.1,17.2v2.2v-1.1v-1.1v4.3v-2.2v2.2v10.8v4.3v4.3v4.3v6.5h-8.6H405h-4.3
	h-4.3h4.3h-4.3v-34.6c0-4.5-3.1-7.1-9.5-7.6c-4.5-0.3-7.8,1.5-10.1,5.4v8.7v4.3v10.8v4.3v8.7H366h-4.3h-4.3h-2.5v-49.8h6.9h4.3h4.3
	h4.3h-4.3h6.5v6C381.6,706.4,387.3,703.7,393.8,703z"/>
<path fill="#D1D3D4" d="M463.7,680.5h8.5h4.2h4.2h4.2h-4.2h4.2v8.5v4.2v10.6v4.2v6.3v4.2v8.4v6.4v8.4v4.2v8.9h-21.2v-1.7
	c-1.7,1.3-6.7,1.8-15.1,1.5c-8.6-0.2-14.9-2.9-19-8.2c-4-5.3-5.8-11.1-5.3-17.3c0.1-5.7,1.7-10.9,4.8-15.6c3.1-4.7,9.1-8.1,18-10.3
	c8.4-0.6,13.9,0.3,16.7,2.6L463.7,680.5L463.7,680.5z M455.8,708.9c-5.7,0.2-8.6,4.6-8.8,13.1v13.6c0.5,8.4,3.4,12.7,9,13.1
	c5.4-0.6,8.1-3,8-7.3v-23.8C464.4,712.4,461.7,709.4,455.8,708.9z"/>
<path fill="#D1D3D4" d="M491.8,727c0.8-9,3.9-15.3,9.2-18.9c5.4-3.6,11.9-5.2,19.4-5h3.3c8.2,0.4,14.7,2.6,19.3,6.6
	s7.3,9.7,7.9,17.2c0.2,9.3-2.4,16-7.8,20.2c-5.4,4.1-11.9,6.6-19.6,7.4H520c-9.9-0.8-17-3.3-21.4-7.8
	C494.4,742.4,492.1,735.8,491.8,727z M521.5,709.4c-6,0.2-9.1,4.1-9.2,11.7v15.1c0.4,7.5,3.5,11.4,9.4,11.8c5.8-0.5,8.6-4.6,8.5-12
	v-14.6C530,713.5,527.1,709.5,521.5,709.4z"/>
<path fill="#D1D3D4" d="M607.6,690c-17.1-47.3-69.4-48-69.4-48H306.1h-0.2H73.8c0,0-52.3,0.7-69.4,48c-5.8,16.1-5.8,33.8-0.4,50
	c7.3,22.1,25.8,52,72.3,52H306h0.2h229.7c46.5,0,64.9-29.9,72.3-52C613.4,723.7,613.4,706.1,607.6,690z M591.2,735.2
	c-6.9,17.5-24.3,41.1-68.2,41.1H306.4h-0.2H89.7c-43.8,0-61.3-23.6-68.2-41.1c-5.1-12.8-5.1-26.8,0.4-39.5
	c16.1-37.3,65.5-37.9,65.5-37.9h218.9h0.2h218.9c0,0,49.3,0.6,65.5,37.9C596.3,708.4,596.3,722.3,591.2,735.2z"/>
</svg>
