<?xml version="1.0" encoding="utf-8"?>
<!-- Generator: Adobe Illustrator 17.1.0, SVG Export Plug-In . SVG Version: 6.00 Build 0)  -->
<!DOCTYPE svg PUBLIC "-//W3C//DTD SVG 1.1//EN" "http://www.w3.org/Graphics/SVG/1.1/DTD/svg11.dtd">
<svg version="1.1" id="Layer_1" xmlns="http://www.w3.org/2000/svg" xmlns:xlink="http://www.w3.org/1999/xlink" x="0px" y="0px"
	 viewBox="0 0 503.295 123.333" enable-background="new 0 0 503.295 123.333" xml:space="preserve">
<path fill="#BCBEC0" d="M50.077,33.587h6.309h3.488h3.525h3.488h-3.488h3.488l26.162,40.152V33.587h6.977h3.525h3.488h3.488h-3.488
	h3.488v6.977v3.488v8.721v3.488v5.232v3.525v6.939v5.27v6.977v3.488v5.232h-8.721h-3.488h-3.488h-0.705L66.887,49.321v12.172v3.525
	v8.721v3.488v5.232v5.232v5.232h-8.721h-3.525h-3.488h-1.076V33.587z"/>
<path fill="#BCBEC0" d="M120.5,33.11h8.795h3.525h3.525h3.525h-3.525h3.525v8.795v3.525v-3.525v3.525h-8.795h-3.525h-3.525H120.5
	h3.525H120.5V33.11v3.525V33.11z M120.5,52.481h7.051h3.525h3.525h3.525h-3.525h5.381l-0.074,39.744h-8.795h-3.525h-3.525h-3.525
	h3.525h-3.525L120.5,52.481z"/>
<path fill="#BCBEC0" d="M179.094,50.137c12.864-1.039,19.458,3.687,19.779,14.176v1.781v-0.891v-0.891v3.562v-1.781v1.781v8.869
	v3.562v3.562v3.562v5.344h-7.088h-3.562h-3.562h-3.562h3.562h-3.562V64.313c0.024-3.735-2.573-5.813-7.793-6.234
	c-3.687-0.272-6.445,1.212-8.275,4.453v7.125v3.525v8.906v3.562v7.125h-8.869h-3.562h-3.562h-2.078V51.844h5.641h3.562h3.562h3.525
	h-3.525h5.381l-0.037,4.973C169.025,52.958,173.701,50.731,179.094,50.137z"/>
<path fill="#BCBEC0" d="M208.968,40.452h16.811v8.424h6.717h3.377h-3.377h3.377v6.754h-6.717h-3.377v6.717v3.377v6.754v3.377v8.424
	v3.377v5.047h-6.717h-3.377h-3.34h-3.377h3.377h-3.377V55.63h-10.094v-6.754h6.717h3.377V40.452z"/>
<path fill="#BCBEC0" d="M259.328,51.457c14.621,0.445,22.277,7.435,22.971,20.967h-5.232h-3.229h-8.053h-3.229h-4.824h-4.824
	c-0.223,8.98,0.865,14.064,3.266,15.252c2.398,1.163,4.773,1.015,7.125-0.445c2.398-1.459,3.352-4.787,2.857-9.982h6.086h3.229
	h3.229h3.229h-3.229h3.229c-2.203,8.882-6.828,14.077-13.879,15.586s-13.67,1.063-19.854-1.336
	c-6.16-2.424-10.167-7.966-12.023-16.625l-0.037-2.895C237.964,58.916,245.695,52.076,259.328,51.457z M259.55,55.984
	c-4.305,0.223-6.52,3.55-6.643,9.982h6.42h3.229h3.229C265.734,59.832,263.656,56.504,259.55,55.984z"/>
<path fill="#BCBEC0" d="M323.86,50.137c12.864-1.039,19.457,3.687,19.779,14.176v1.781v-0.891v-0.891v3.562v-1.781v1.781v8.869
	v3.562v3.562v3.562v5.344h-7.088h-3.562h-3.562h-3.562h3.562h-3.562V64.313c0.024-3.735-2.573-5.813-7.793-6.234
	c-3.687-0.272-6.445,1.212-8.275,4.453v7.125v3.525v8.906v3.562v7.125h-8.869h-3.562h-3.562h-2.078V51.844h5.641h3.562h3.562h3.525
	h-3.525h5.381l-0.037,4.973C313.79,52.958,318.466,50.731,323.86,50.137z"/>
<path fill="#BCBEC0" d="M381.342,31.62h6.977h3.451h3.488h3.488h-3.488h3.488v6.977v3.451v8.684v3.488v5.195v3.488v6.939v5.232
	v6.939v3.488v7.348h-17.441l-0.037-1.41c-1.361,1.063-5.505,1.472-12.432,1.225c-7.076-0.148-12.271-2.399-15.586-6.754
	c-3.315-4.379-4.763-9.129-4.342-14.25c0.074-4.7,1.397-8.968,3.971-12.803c2.572-3.834,7.496-6.667,14.77-8.498
	c6.902-0.47,11.467,0.235,13.693,2.115V31.62z M374.848,55.036c-4.651,0.198-7.063,3.798-7.236,10.799v11.207
	c0.371,6.878,2.832,10.478,7.385,10.799c4.453-0.47,6.643-2.461,6.568-5.975V62.309C381.911,57.881,379.672,55.457,374.848,55.036z"
	/>
<path fill="#BCBEC0" d="M404.456,69.93c0.643-7.397,3.179-12.567,7.607-15.512c4.428-2.944,9.747-4.317,15.957-4.119h2.746
	c6.778,0.347,12.072,2.146,15.883,5.399c3.81,3.253,5.975,7.96,6.494,14.12c0.173,7.645-1.955,13.187-6.383,16.625
	c-4.404,3.39-9.772,5.405-16.105,6.049h-2.857c-8.14-0.618-14.016-2.746-17.627-6.383C406.583,82.523,404.679,77.129,404.456,69.93z
	 M428.837,55.457c-4.924,0.148-7.447,3.365-7.57,9.648V77.5c0.346,6.136,2.919,9.364,7.719,9.686
	c4.75-0.445,7.075-3.748,6.977-9.908V65.254C435.838,58.773,433.463,55.507,428.837,55.457z"/>
<path fill="#BCBEC0" d="M499.664,39.446C485.589,0.586,442.581,0,442.581,0H251.713h-0.132H60.713c0,0-43.008,0.586-57.083,39.446
	C-1.163,52.68-1.139,67.21,3.283,80.573c6.019,18.19,21.221,42.76,59.43,42.76h188.868h0.132h188.868
	c38.21,0,53.412-24.57,59.43-42.76C504.434,67.21,504.457,52.68,499.664,39.446z M486.208,76.603
	c-5.677,14.37-20.016,33.781-56.057,33.781H252.002h-0.124H73.729c-36.041,0-50.38-19.41-56.057-33.781
	C13.502,66.046,13.479,54.568,18,44.113c13.276-30.7,53.843-31.163,53.843-31.163h180.035h0.124h180.035
	c0,0,40.567,0.463,53.843,31.163C490.401,54.568,490.379,66.046,486.208,76.603z"/>
</svg>
