<?xml version="1.0" encoding="utf-8"?>
<!-- Generator: Adobe Illustrator 17.1.0, SVG Export Plug-In . SVG Version: 6.00 Build 0)  -->
<!DOCTYPE svg PUBLIC "-//W3C//DTD SVG 1.1//EN" "http://www.w3.org/Graphics/SVG/1.1/DTD/svg11.dtd">
<svg version="1.1" id="Layer_1" xmlns="http://www.w3.org/2000/svg" xmlns:xlink="http://www.w3.org/1999/xlink" x="0px" y="0px"
	 viewBox="0 0 140.8 177.6" enable-background="new 0 0 140.8 177.6" xml:space="preserve">
<polygon fill="#FFCB8B" points="30.2,47.8 30.2,60.1 24.3,60.1 24.3,77.6 30.5,77.6 30.5,71.3 42.5,71.3 42.5,64.6 49.2,64.6 
	49.2,71.3 55,71.3 55,77.8 67.2,77.8 67.2,71.6 74.1,71.6 74.1,66.1 79.5,66.1 79.5,71.7 91.5,71.7 91.5,65.3 85.8,65.3 85.8,47.6 
	79.5,47.6 79.5,41.4 42.9,41.4 42.9,47.8 "/>
<g>
	<rect x="49.1" y="18.3" fill="#FFFFFF" width="24.9" height="5.8"/>
	<rect x="55" y="12.2" fill="#FFFFFF" width="12.1" height="7.5"/>
	<rect x="97.8" y="23.8" fill="#FFFFFF" width="12.8" height="18.1"/>
	<rect x="91.5" y="47.8" fill="#FFFFFF" width="18.8" height="11.8"/>
	<rect x="91.5" y="59" fill="#FFFFFF" width="6.4" height="6.4"/>
	<rect x="97.8" y="65.6" fill="#FFFFFF" width="24" height="5.9"/>
	<rect x="110" y="41.8" fill="#FFFFFF" width="18" height="6.2"/>
	<rect x="116.2" y="48" fill="#FFFFFF" width="18.7" height="17.3"/>
	<rect x="122" y="30.1" fill="#FFFFFF" width="12.5" height="11.6"/>
	<rect x="115.8" y="35.8" fill="#FFFFFF" width="6.8" height="8.4"/>
</g>
<polygon fill="#FFFFFF" points="86,47.8 85.8,60.1 67.5,60.1 67.5,41.8 79.6,41.8 79.6,47.8 "/>
<polygon fill="#FFFFFF" points="36.5,47.8 36.8,60.1 55,60.1 55,41.8 42.9,41.8 42.9,47.8 "/>
<polygon fill="#FFCB8B" points="12.7,47.7 25.3,47.7 25.3,60.1 18.8,60.1 18.8,71.5 12.8,71.5 "/>
<rect x="6" y="166.2" fill="#ED1C24" width="46.9" height="7.1"/>
<rect x="74" y="166.3" fill="#ED1C24" width="41.8" height="5.8"/>
<rect x="49.3" y="107.2" fill="#ED1C24" width="11.8" height="5.7"/>
<rect x="42.3" y="95" fill="#ED1C24" width="8" height="12.2"/>
<rect x="48" y="99.7" fill="#ED1C24" width="19" height="7.7"/>
<rect x="6" y="100.6" fill="#ED1C24" width="6" height="18.5"/>
<rect x="11.8" y="106.3" fill="#ED1C24" width="12.7" height="18.8"/>
<rect x="12" y="95.1" fill="#ED1C24" width="18.2" height="12"/>
<rect x="24.5" y="89.1" fill="#ED1C24" width="12" height="6.5"/>
<rect x="90.6" y="71.6" fill="#ED1C24" width="9.6" height="35.5"/>
<rect x="85.5" y="89.1" fill="#ED1C24" width="6" height="18"/>
<rect x="97.7" y="77.5" fill="#ED1C24" width="12.3" height="12.1"/>
<rect x="97.5" y="88.8" fill="#ED1C24" width="6.7" height="12.2"/>
<rect x="18.3" y="30" fill="#ED1C24" width="6.5" height="12.2"/>
<rect x="24.7" y="18.3" fill="#ED1C24" width="5.6" height="17.5"/>
<rect x="30" y="12" fill="#ED1C24" width="12.7" height="18.3"/>
<rect x="30.3" y="26.7" fill="#ED1C24" width="12.4" height="18.6"/>
<rect x="42.2" y="30.1" fill="#ED1C24" width="37.8" height="6.2"/>
<rect x="79.8" y="24.1" fill="#ED1C24" width="11.9" height="6.1"/>
<rect x="42.2" y="6.3" fill="#ED1C24" width="7" height="17.8"/>
<rect x="47.7" y="6.3" fill="#ED1C24" width="7.2" height="11.8"/>
<rect x="53.1" y="6.3" fill="#ED1C24" width="27.7" height="5.8"/>
<rect x="67" y="10.3" fill="#ED1C24" width="24.2" height="8.3"/>
<rect x="73.7" y="18.2" fill="#ED1C24" width="24.2" height="6.2"/>
<rect x="79.5" y="36" fill="#ED1C24" width="12.8" height="6"/>
<rect x="29.3" y="0" width="13" height="12"/>
<rect x="30.3" y="0" width="49.3" height="6.3"/>
<rect x="24.7" y="6" width="5.7" height="12.3"/>
<rect x="18.7" y="18" width="6" height="12.3"/>
<rect x="110.2" y="48" width="6" height="12.3"/>
<rect x="12.7" y="30" width="5.7" height="17.7"/>
<rect x="12.7" y="42" width="12.2" height="5.7"/>
<rect x="24.7" y="35.8" width="5.8" height="5.8"/>
<rect x="30.3" y="41.6" width="12.7" height="6.2"/>
<rect x="24.8" y="54.1" width="5.7" height="6"/>
<rect x="7.3" y="47.3" width="5.5" height="24.2"/>
<rect x="11.8" y="71.6" width="12.8" height="6"/>
<rect x="18.8" y="60.1" width="5.8" height="12.8"/>
<rect x="49.5" y="48.1" width="5.5" height="12"/>
<rect x="67.3" y="48.1" width="6.5" height="12"/>
<rect x="41.6" y="24.1" width="38.8" height="6.3"/>
<rect x="42.5" y="36.4" width="37" height="5"/>
<rect x="30.5" y="30.3" width="11.5" height="5"/>
<rect x="79.8" y="30.1" width="17.8" height="6"/>
<rect x="91.5" y="23.8" width="6.2" height="24"/>
<rect x="79.5" y="41.8" width="30.5" height="5.8"/>
<rect x="85.8" y="46.1" width="5.8" height="19.2"/>
<rect x="30.4" y="71.3" width="24.6" height="6.5"/>
<rect x="37.2" y="77.8" width="54" height="4.8"/>
<rect x="67.2" y="71.6" width="24" height="6.2"/>
<rect x="74" y="66.1" width="5.5" height="16.5"/>
<rect x="42.5" y="64.6" width="6.8" height="17.2"/>
<rect x="49.5" y="82.6" width="24.5" height="6.5"/>
<rect x="79.8" y="6.1" width="11.5" height="5.5"/>
<rect x="91.2" y="11.6" width="6.5" height="6.8"/>
<rect x="97.8" y="18.3" width="12.5" height="5.5"/>
<rect x="110.2" y="23.8" width="5.8" height="17.5"/>
<rect x="115.8" y="30.1" width="6" height="5.8"/>
<rect x="122" y="24.1" width="12.5" height="6"/>
<rect x="97.8" y="59.6" width="12.5" height="6"/>
<rect x="121.5" y="65.3" width="13.5" height="6"/>
<rect x="134.5" y="30.1" width="6" height="11.8"/>
<rect x="134.8" y="48.6" width="6" height="17"/>
<rect x="128" y="41.6" width="6.5" height="6.5"/>
<rect x="91.5" y="65.3" width="6.5" height="6.5"/>
<rect x="24.5" y="77.6" width="6" height="11.5"/>
<rect x="24.5" y="83.1" width="12" height="6"/>
<rect x="36.5" y="89.1" width="12.2" height="6"/>
<rect x="12.8" y="89.1" width="11.8" height="6"/>
<rect x="6.5" y="95.1" width="5.5" height="5.5"/>
<rect y="100.8" width="6" height="18.2"/>
<rect x="30.2" y="95.3" width="6.5" height="11.8"/>
<rect x="24.5" y="107.1" width="6" height="17.5"/>
<rect x="6" y="119.1" width="6.1" height="5.8"/>
<rect x="11.8" y="124.8" width="12.8" height="5.8"/>
<rect x="18.2" y="129.8" width="6.2" height="12.8"/>
<rect x="98" y="71.5" width="23.8" height="6.1"/>
<rect x="110" y="77.6" width="5.8" height="12"/>
<rect x="104" y="89.6" width="6" height="11"/>
<rect x="97.5" y="101.1" width="6.2" height="6.7"/>
<rect x="74" y="89.1" width="11.5" height="5.8"/>
<rect x="79.5" y="82.6" width="11.8" height="6.5"/>
<rect x="49.5" y="95.1" width="23.5" height="5.5"/>
<rect x="12.5" y="142.6" width="6.1" height="17.2"/>
<rect x="0.5" y="154.8" width="12" height="5"/>
<rect x="0.5" y="158.6" width="5.8" height="13"/>
<rect x="6.2" y="172.1" width="109.5" height="5.5"/>
<rect x="49.2" y="148.1" width="24.8" height="26.2"/>
<rect x="42" y="153.9" width="37.5" height="5.9"/>
<rect x="91.5" y="107.1" width="6.2" height="23.5"/>
<rect x="97.4" y="130.6" width="6.3" height="12"/>
<rect x="103.4" y="142.6" width="6.6" height="17"/>
<rect x="110" y="154.8" width="12" height="5"/>
<rect x="116.2" y="160.3" width="11.8" height="5.5"/>
<rect x="115.8" y="154.8" width="6.2" height="17.2"/>
<rect x="24.8" y="41" fill="#A97C50" width="5.7" height="13.1"/>
<rect x="18.7" y="159.8" fill="#A97C50" width="30.8" height="6.3"/>
<rect x="74" y="159" fill="#A97C50" width="30.3" height="7.3"/>
<rect x="110" y="159.8" fill="#A97C50" width="5.8" height="6.6"/>
<polygon fill="#1C75BC" points="18.2,142.6 18.2,159.8 42,159.8 42,154.8 49.4,154.8 49.4,149.1 74,149.1 74,154.7 79.5,154.7 
	79.5,159.8 103.8,159.8 103.8,142.6 97.8,142.6 97.8,130.6 91.5,130.6 91.5,107.1 85.5,107.1 85.5,94.8 73,94.8 73,100.6 67,100.6 
	67,107.3 61.2,107.3 61.2,112.8 49.3,112.8 49.3,107.2 42.3,107.2 42.3,95 36.5,95 36.5,107.1 30.2,107.1 30.2,124.6 24.5,124.6 
	24.5,142.6 "/>
<rect x="30.2" y="107.1" fill="#FFF200" width="12.6" height="12.1"/>
<rect x="67" y="107.3" fill="#FFF200" width="12.7" height="11.8"/>
<rect x="6" y="159.3" fill="#C49A6C" width="12.7" height="6.8"/>
<rect x="103.8" y="159.6" fill="#C49A6C" width="6.2" height="6.8"/>
<rect x="30.5" y="77.6" fill="#FFCB8B" width="6.8" height="5.8"/>
<rect x="36.4" y="82.6" fill="#FFCB8B" width="13.1" height="6.5"/>
<rect x="48.8" y="89.1" fill="#FFCB8B" width="25.4" height="6.1"/>
<rect x="74" y="82.6" fill="#FFCB8B" width="5.5" height="6.5"/>
<rect x="110.2" y="60.3" fill="#FFFFFF" width="24.5" height="5.2"/>
</svg>
