<?xml version="1.0" encoding="utf-8"?>
<!-- Generator: Adobe Illustrator 17.1.0, SVG Export Plug-In . SVG Version: 6.00 Build 0)  -->
<!DOCTYPE svg PUBLIC "-//W3C//DTD SVG 1.1//EN" "http://www.w3.org/Graphics/SVG/1.1/DTD/svg11.dtd">
<svg version="1.1" id="Layer_1" xmlns="http://www.w3.org/2000/svg" xmlns:xlink="http://www.w3.org/1999/xlink" x="0px" y="0px"
	 viewBox="6 88 606 608" enable-background="new 6 88 606 608" xml:space="preserve">
<path fill="#00AEEF" d="M511.4,89.6H105C49.6,89.6,4.7,134.5,4.7,190v406.4c0,55.4,44.9,100.3,100.3,100.3h406.4
	c55.4,0,100.3-44.9,100.3-100.3V190C611.7,134.5,566.8,89.6,511.4,89.6z M488.4,305.4c0,0,4.9,129.4-79,194.7
	c0,0-128.4,132.4-303.3,26.7c0,0,69.2,9.9,126.5-35.6c0,0-59.3,0-79-61.3c0,0,9.9,7.9,38.5-2c0,0-69.2-8.9-69.2-85
	c0,0,30.6,10.9,39.5,9.9c0,0-63.2-39.5-27.7-117.6c0,0,66.2,90.9,179.8,89.4c0,0-11.9-60.8,41.5-93.4c0,0,53.4-33.6,108.7,15.8
	c0,0,36.6-5.9,55.3-21.7c0,0-12.8,40.5-38.5,49.4c0,0,36.6-5.9,48.4-13.8C529.9,261,515.1,289.6,488.4,305.4z"/>
</svg>
