<?xml version="1.0" encoding="utf-8"?>
<!-- Generator: Adobe Illustrator 17.1.0, SVG Export Plug-In . SVG Version: 6.00 Build 0)  -->
<!DOCTYPE svg PUBLIC "-//W3C//DTD SVG 1.1//EN" "http://www.w3.org/Graphics/SVG/1.1/DTD/svg11.dtd">
<svg version="1.1" id="Layer_1" xmlns="http://www.w3.org/2000/svg" xmlns:xlink="http://www.w3.org/1999/xlink" x="0px" y="0px"
	 viewBox="157.9 331.9 306.5 306.6" enable-background="new 157.9 331.9 306.5 306.6" xml:space="preserve">
<path fill="#00AEEF" d="M413.8,331.9H208.6c-28,0-50.6,22.7-50.6,50.7v205.2c0,28,22.7,50.6,50.6,50.6h205.2
	c28,0,50.6-22.7,50.6-50.6V382.6C464.4,354.6,441.8,331.9,413.8,331.9z M402.2,440.9c0,0,2.5,65.3-39.9,98.3
	c0,0-64.8,66.9-153.2,13.5c0,0,34.9,5,63.9-18c0,0-29.9,0-39.9-31c0,0,5,4,19.4-1c0,0-34.9-4.5-34.9-42.9c0,0,15.5,5.5,19.9,5
	c0,0-31.9-19.9-14-59.4c0,0,33.4,45.9,90.8,45.1c0,0-6-30.7,21-47.2c0,0,27-17,54.9,8c0,0,18.5-3,27.9-11c0,0-6.5,20.5-19.4,24.9
	c0,0,18.5-3,24.4-7C423.1,418.4,415.7,432.9,402.2,440.9z"/>
</svg>
